<svg width="512" height="512" viewBox="0 0 512 512" fill="none" xmlns="http://www.w3.org/2000/svg">
<path d="M436.67 184.11C431.58 189.167 424.696 192.006 417.52 192.006C410.345 192.006 403.46 189.167 398.37 184.11L375.89 161.62C370.831 156.533 367.991 149.65 367.991 142.475C367.991 135.3 370.831 128.417 375.89 123.33L426.78 72.44C426.878 72.3422 426.951 72.2219 426.991 72.0897C427.032 71.9575 427.04 71.8173 427.015 71.6813C426.989 71.5453 426.931 71.4176 426.844 71.3094C426.758 71.2011 426.647 71.1155 426.52 71.06C393.68 57 351.09 64.15 324.05 91C298.17 116.69 296.7 155.27 306.18 189C307.527 193.791 307.524 198.862 306.17 203.651C304.817 208.44 302.166 212.763 298.51 216.14L125.51 376.9C121.381 380.597 118.049 385.098 115.719 390.127C113.388 395.156 112.108 400.607 111.956 406.148C111.804 411.688 112.783 417.202 114.835 422.351C116.886 427.5 119.966 432.176 123.886 436.095C127.807 440.013 132.485 443.09 137.635 445.139C142.785 447.188 148.299 448.164 153.839 448.01C159.38 447.855 164.831 446.571 169.858 444.238C174.886 441.905 179.385 438.571 183.08 434.44L345.23 261.14C348.571 257.545 352.829 254.928 357.545 253.571C362.262 252.215 367.26 252.169 372 253.44C405.46 262.38 443.49 260.7 469.07 235.5C496.56 208.42 502.49 160.56 489.17 133.17C489.11 133.05 489.022 132.946 488.913 132.866C488.805 132.787 488.679 132.734 488.546 132.713C488.414 132.691 488.278 132.701 488.15 132.743C488.022 132.784 487.905 132.855 487.81 132.95L436.67 184.11Z" stroke="white" stroke-width="32" stroke-miterlimit="10" stroke-linecap="round"/>
<path d="M224 284C206.52 267 198.51 259.09 193 253.71C190.242 250.97 188.432 247.422 187.833 243.581C187.234 239.741 187.878 235.809 189.67 232.36C190.615 230.664 191.793 229.109 193.17 227.74L208.85 212.45C210.472 210.824 212.381 209.513 214.48 208.58C217.793 207.113 221.47 206.674 225.036 207.32C228.601 207.965 231.891 209.665 234.48 212.2C239.93 217.49 249.91 227.2 267.89 244.72M317.07 291.3C358.02 329.4 407.69 374.57 427.07 390.71C428.519 391.905 429.703 393.39 430.544 395.069C431.385 396.749 431.865 398.585 431.953 400.462C432.042 402.338 431.737 404.212 431.058 405.963C430.379 407.714 429.34 409.304 428.01 410.63L394.63 444C393.271 445.327 391.657 446.365 389.885 447.048C388.113 447.732 386.22 448.048 384.322 447.977C382.424 447.906 380.56 447.449 378.844 446.635C377.128 445.82 375.595 444.665 374.34 443.24C357.81 424.06 313.25 376.13 275.07 336.24" stroke="white" stroke-width="32" stroke-linecap="round" stroke-linejoin="round"/>
<path d="M17.34 193.5L46.75 164.76C47.1992 164.318 47.7325 163.971 48.3182 163.739C48.9039 163.508 49.5302 163.396 50.16 163.41C51.4295 163.396 52.6538 163.881 53.57 164.76C54.635 165.814 55.9261 166.611 57.3452 167.091C58.7643 167.57 60.2741 167.721 61.76 167.53C65.59 167.11 69.68 165.93 72.33 163.41C78.33 157.61 71.39 146.18 76.67 138.87C82.7074 130.868 89.3181 123.314 96.45 116.27C102.45 110.39 126.29 87.95 166.35 71.82C179.161 66.6417 192.852 63.9864 206.67 64C229.26 64 246.67 74 252.93 79.67C256.687 83.245 260.127 87.1396 263.21 91.31C260.199 90.2003 257.123 89.2752 254 88.54C247.431 87.1464 240.692 86.7219 234 87.28C220.67 88.37 204.59 94.54 196 101.28C182.1 112.28 176.13 127 175.19 145.99C174.51 160.11 177.91 168.09 211.29 201.48C212.431 202.753 213.033 204.42 212.97 206.129C212.906 207.837 212.182 209.455 210.95 210.64L192.73 228.64C191.46 229.885 189.757 230.59 187.978 230.607C186.199 230.624 184.483 229.951 183.19 228.73C161.25 206.79 146.54 195.64 138.19 190.57C129.84 185.5 123.12 184.07 119.89 183.72C113.546 183.091 107.164 184.443 101.62 187.59C100.647 188.124 99.7578 188.798 98.98 189.59C97.6816 190.932 96.6619 192.518 95.9797 194.256C95.2976 195.994 94.9664 197.851 95.0055 199.718C95.0445 201.584 95.453 203.425 96.2072 205.133C96.9615 206.842 98.0466 208.383 99.4 209.67L101.11 211.27C101.554 211.701 101.907 212.218 102.148 212.788C102.389 213.358 102.513 213.971 102.513 214.59C102.513 215.209 102.389 215.822 102.148 216.392C101.907 216.962 101.554 217.478 101.11 217.91L71.73 246.6C71.2849 247.051 70.7535 247.407 70.1676 247.647C69.5817 247.888 68.9533 248.008 68.32 248C67.0506 248.013 65.8267 247.528 64.91 246.65L17.34 200.22C16.479 199.313 15.999 198.11 15.999 196.86C15.999 195.61 16.479 194.407 17.34 193.5Z" stroke="white" stroke-width="32" stroke-linecap="round" stroke-linejoin="round"/>
</svg>
