<svg width="406" height="512" viewBox="0 0 406 512" fill="none" xmlns="http://www.w3.org/2000/svg">
<path d="M209.27 33L-10 304H118L86.49 477.23C86.43 477.57 86.4454 477.919 86.5349 478.252C86.6244 478.585 86.7859 478.895 87.0081 479.159C87.2302 479.423 87.5076 479.635 87.8207 479.781C88.1338 479.926 88.4749 480.001 88.82 480C89.1872 480 89.5493 479.914 89.8774 479.749C90.2055 479.584 90.4906 479.344 90.71 479.05L310 208H182L213.66 34.75C213.703 34.4048 213.671 34.0546 213.568 33.7225C213.465 33.3904 213.292 33.0841 213.061 32.8239C212.83 32.5638 212.547 32.3558 212.229 32.2137C211.912 32.0717 211.568 31.9988 211.22 32C210.839 32.0015 210.464 32.0929 210.125 32.2666C209.786 32.4404 209.493 32.6917 209.27 33Z" stroke="white" stroke-width="32" stroke-linecap="round" stroke-linejoin="round"/>
</svg>
